<?xml version="1.0" standalone="no"?>
<svg xmlns:xlink="http://www.w3.org/1999/xlink" id="wave" style="transform:rotate(0deg); transition: 0.3s" viewBox="0 0 1440 320" version="1.1" xmlns="http://www.w3.org/2000/svg"><defs><linearGradient id="sw-gradient-0" x1="0" x2="0" y1="1" y2="0"><stop stop-color="rgba(244, 51, 171, 1)" offset="0%"/><stop stop-color="rgba(50, 20, 245, 0.84)" offset="100%"/></linearGradient></defs><path style="transform:translate(0, 0px); opacity:1" fill="url(#sw-gradient-0)" d="M0,128L48,149.3C96,171,192,213,288,192C384,171,480,85,576,53.3C672,21,768,43,864,85.3C960,128,1056,192,1152,186.7C1248,181,1344,107,1440,106.7C1536,107,1632,181,1728,202.7C1824,224,1920,192,2016,170.7C2112,149,2208,139,2304,160C2400,181,2496,235,2592,218.7C2688,203,2784,117,2880,90.7C2976,64,3072,96,3168,133.3C3264,171,3360,213,3456,192C3552,171,3648,85,3744,69.3C3840,53,3936,107,4032,112C4128,117,4224,75,4320,80C4416,85,4512,139,4608,170.7C4704,203,4800,213,4896,186.7C4992,160,5088,96,5184,96C5280,96,5376,160,5472,202.7C5568,245,5664,267,5760,272C5856,277,5952,267,6048,240C6144,213,6240,171,6336,138.7C6432,107,6528,85,6624,90.7C6720,96,6816,128,6864,144L6912,160L6912,320L6864,320C6816,320,6720,320,6624,320C6528,320,6432,320,6336,320C6240,320,6144,320,6048,320C5952,320,5856,320,5760,320C5664,320,5568,320,5472,320C5376,320,5280,320,5184,320C5088,320,4992,320,4896,320C4800,320,4704,320,4608,320C4512,320,4416,320,4320,320C4224,320,4128,320,4032,320C3936,320,3840,320,3744,320C3648,320,3552,320,3456,320C3360,320,3264,320,3168,320C3072,320,2976,320,2880,320C2784,320,2688,320,2592,320C2496,320,2400,320,2304,320C2208,320,2112,320,2016,320C1920,320,1824,320,1728,320C1632,320,1536,320,1440,320C1344,320,1248,320,1152,320C1056,320,960,320,864,320C768,320,672,320,576,320C480,320,384,320,288,320C192,320,96,320,48,320L0,320Z"/></svg>